<svg id="Layer_1" data-name="Layer 1" xmlns="http://www.w3.org/2000/svg" xmlns:xlink="http://www.w3.org/1999/xlink" viewBox="0 0 150 150"><defs><style>.cls-1{fill:none;}.cls-2{opacity:0.95;fill:url(#Degradado_sin_nombre_117);}.cls-3{fill:url(#Degradado_sin_nombre_104);}</style><linearGradient id="Degradado_sin_nombre_117" x1="88.42" y1="77.71" x2="142.82" y2="77.71" gradientUnits="userSpaceOnUse"><stop offset="0" stop-color="#a855f7"/><stop offset="0.47" stop-color="#c94fc9"/><stop offset="1" stop-color="#ec4899"/></linearGradient><linearGradient id="Degradado_sin_nombre_104" x1="5.76" y1="77.41" x2="88.42" y2="77.41" gradientUnits="userSpaceOnUse"><stop offset="0" stop-color="#6366f1"/><stop offset="1" stop-color="#a855f7"/></linearGradient></defs><title>riffify-no-bg</title><rect class="cls-1" width="150" height="150" rx="7.1"/><path class="cls-2" d="M142.82,59.9H95.23A7.25,7.25,0,0,0,91,58.49a7.08,7.08,0,0,0-2.62.53v2.59a4.92,4.92,0,0,1,2.29-.77h.59a4.51,4.51,0,0,1,3.89,6.76H88.42v.94h6.09a15.39,15.39,0,0,1-1.28,1.27l-.06.06c-1.32,1.21-2.92,2.7-3.2,5.44H88.42v.94h1.52a1.13,1.13,0,0,0,1.1,1,1.12,1.12,0,0,0,1.1-1H133.9A6.73,6.73,0,0,0,132.82,80a1.13,1.13,0,1,0,2.25,0,4.84,4.84,0,0,1,1.79-3.79h6v-.94h-4.94c1.42-1.28,3.06-2.91,3.06-6a6.49,6.49,0,0,0-.05-.77h1.93V67.6h-2.13a7.1,7.1,0,0,0-13.5,0H97.66A7.44,7.44,0,0,0,98,65.21a6.38,6.38,0,0,0-1.74-4.37h46.52ZM133.94,65a5,5,0,0,1,4.33,2.61h-8.66A5,5,0,0,1,133.94,65Zm-7,3.55a6.49,6.49,0,0,0,0,.77,1.13,1.13,0,1,0,2.25,0,3.32,3.32,0,0,1,.1-.77h9.31a4,4,0,0,1,.09.77c0,2.18-1.09,3.2-2.56,4.52l-.06.06a17.41,17.41,0,0,0-1.44,1.42H109a1.71,1.71,0,1,0-1.1,0H92.23c.23-1.66,1.22-2.59,2.5-3.76l0,0a10.62,10.62,0,0,0,2.49-3ZM109.62,79.6a1.13,1.13,0,1,0-2.25,0A4.56,4.56,0,0,1,105.93,83H92.52a1.73,1.73,0,1,0-3.19-.87,1.85,1.85,0,0,0,.23.87H88.42V84H105l-.14.13,0,0c-1.47,1.31-3.28,2.94-3.28,6.2,0,.13,0,.26,0,.39H88.42v1h13.22a7.09,7.09,0,0,0,13.7,0h27.48v-1H115.47c0-.13,0-.26,0-.39a1.13,1.13,0,1,0-2.25,0,2.6,2.6,0,0,1,0,.39h-9.4c0-.13-.05-.26-.05-.39,0-2.19,1.1-3.21,2.56-4.53l.06-.06A14.14,14.14,0,0,0,108.12,84h34.7V83H108.74A6.67,6.67,0,0,0,109.62,79.6ZM113,91.67a4.84,4.84,0,0,1-8.94,0Zm21-7.45A1.74,1.74,0,1,1,132.23,86,1.73,1.73,0,0,1,133.94,84.22Z"/><path class="cls-3" d="M86.87,59.9H78.25a7.81,7.81,0,0,0,.18-1.59c0-3.92-3.64-6.61-7-6.61s-7,2.69-7,6.61a1.13,1.13,0,1,0,2.25,0C66.68,55.94,69,54,71.43,54s4.75,1.95,4.75,4.32a5.1,5.1,0,0,1-.25,1.59H32.32c1.27-4.81-2.21-8.52-2.21-8.52l-.15.08c-.17.08-3.44,1.77-4.36,8.44H5.76V91.67H25.55c-.07,3.45-.14,5.76-.14,5.84s.1,4.35-3.66,5.24a5.2,5.2,0,0,1-5.25-1.63,5,5,0,0,1-.71-4.05,3.14,3.14,0,0,0,2.93,3.31,3.14,3.14,0,0,0,2.93-3.31,3.22,3.22,0,0,0-2.42-3.26,3.26,3.26,0,0,0-4,2.58,5.63,5.63,0,0,0,.93,5.08,5.28,5.28,0,0,0,4.19,2,6.54,6.54,0,0,0,1.5-.18A4.71,4.71,0,0,0,24,102.13h0a6.3,6.3,0,0,0,2.28-4.86s0-2.26,0-5.61H88.42v-1H26.27c0-.27,0-.55,0-.84h0a6.92,6.92,0,0,0,5.62-4.35A6.62,6.62,0,0,0,32.27,84H48.66a7.05,7.05,0,0,0,13.92,0H88.42V83H62.57a1.09,1.09,0,0,0-2.15,0H50.89c.09-2,1.14-3,2.54-4.28l.06,0a11.73,11.73,0,0,0,2.22-2.44H70.29a1.67,1.67,0,0,0,2.28,0H88.42v-.94H73.11a2,2,0,0,0,0-.35,1.71,1.71,0,1,0-3.42,0,2,2,0,0,0,0,.35H56.2a6.89,6.89,0,0,0,.55-2.77,1.13,1.13,0,1,0-2.25,0,4.37,4.37,0,0,1-.89,2.77H26.25c0-2.5,0-4.84,0-6.77H70.34c0,.17,0,.32,0,.5a1.13,1.13,0,1,0,2.25,0,3.9,3.9,0,0,1,0-.5H88.42V67.6H72.75a7,7,0,0,1,2.36-3.06l0,0A9.52,9.52,0,0,0,78,60.84h7.83A6.36,6.36,0,0,0,84,65.21a1.13,1.13,0,1,0,2.26,0,4.37,4.37,0,0,1,2.12-3.6V59A8.23,8.23,0,0,0,86.87,59.9ZM60.29,84A4.81,4.81,0,0,1,51,84Zm-34-4.9a4.66,4.66,0,0,1,4,3.89.17.17,0,0,1,0,.07h-4C26.25,81.71,26.25,80.38,26.25,79.06Zm0,10V84h4.11C30.49,86.59,28.58,88.28,26.26,89.08ZM52.78,76.25c-.26.26-.54.51-.84.79l0,0c-1.43,1.28-3.16,2.87-3.26,6H32.33a7,7,0,0,0-2.22-5.14,4.8,4.8,0,0,0-3.86-1.27v-.36Zm-27.1.46A6.74,6.74,0,0,0,23,78.13,5.35,5.35,0,0,0,21.14,83H15.69c0-.2-.06-.4-.07-.59l0,.06a9.59,9.59,0,0,1,1.56-6.24h8.47C25.67,76.4,25.68,76.55,25.68,76.71ZM14.14,83H12.67V76.25H15A10.85,10.85,0,0,0,14.14,83Zm-1.47-7.71V68.54h9.22a20.27,20.27,0,0,0-6.41,6.77Zm13,0H17.85A33.24,33.24,0,0,1,23.32,70c.68-.56,1.31-1,1.91-1.47h.31C25.61,70.65,25.65,73,25.67,75.31Zm-.26-9.8c0,.1,0,.21,0,.31-.68.6-1.45,1.19-2.24,1.78H12.67V60.84H25.5A31.86,31.86,0,0,0,25.41,65.51ZM9.05,60.84h2.18V67.6H9.05Zm0,7.7h2.18v6.77H9.05Zm0,7.71h2.18V83H9.05Zm0,14.47V84h2.18v6.76Zm16.51,0H12.67V84h1.7A8.51,8.51,0,0,0,22.26,90a13.05,13.05,0,0,0,3.32,0C25.57,90.24,25.57,90.49,25.56,90.72Zm0-1.43a10.82,10.82,0,0,1-1.67.29,13.18,13.18,0,0,1-1.62-.08c-1.86-.23-3.63-.52-4.94-2.21A9,9,0,0,1,15.87,84h5.55a5.29,5.29,0,0,0,.4.84,2.88,2.88,0,0,0,2.43,1.08A3.6,3.6,0,0,1,22.73,84h2.93C25.64,85.84,25.61,87.65,25.59,89.29ZM25.66,83H22.52a5.39,5.39,0,0,1,.08-1.62A3.05,3.05,0,0,1,25.68,79C25.68,80.38,25.67,81.71,25.66,83Zm1.58-24.8a12.07,12.07,0,0,1,3.56-4.44A7.7,7.7,0,0,1,31.05,57a9.81,9.81,0,0,1-.88,2.93H26.73A11.33,11.33,0,0,1,27.24,58.22Zm-1,5.6a18.66,18.66,0,0,1,.26-3h3.13a19.07,19.07,0,0,1-3.4,4.2C26.27,64.51,26.27,64.09,26.28,63.82Zm47.34-1-.06.06a8.33,8.33,0,0,0-3.11,4.71H57a1.75,1.75,0,0,0,.31-1,1.72,1.72,0,1,0-3.13,1H26.52A12.93,12.93,0,0,0,32,60.84H75.48A10.08,10.08,0,0,1,73.62,62.83Z"/></svg>