<?xml version="1.0" encoding="utf-8"?>
<!-- Generator: Adobe Illustrator 23.0.5, SVG Export Plug-In . SVG Version: 6.00 Build 0)  -->
<svg version="1.1" id="Capa_1" xmlns="http://www.w3.org/2000/svg" xmlns:xlink="http://www.w3.org/1999/xlink" x="0px" y="0px"
	 viewBox="0 0 493.6 500" style="enable-background:new 0 0 493.6 500;" xml:space="preserve">
<style type="text/css">
	.st0{fill:#EC4899;stroke:#231F20;stroke-width:2;stroke-miterlimit:10;}
	.st1{fill:#6366F1;stroke:#231F20;stroke-width:2;stroke-miterlimit:10;}
	.st2{fill:#155E75;stroke:#231F20;stroke-width:6;stroke-miterlimit:10;}
	.st3{fill:#155E75;stroke:#231F20;stroke-width:4;stroke-miterlimit:10;}
</style>
<title>este si</title>
<path class="st0" d="M282.1,188.2c2.9-2.2,5.8-1.3,8.9-0.2c7.5,2.8,15.1,5.3,22.4,8.4c3.8,1.6,3.5,4.1,0.3,6.5
	c-1.1,0.9-2.1,1.9-3,2.9c-4.9,5-4.9,7,0.3,11.5c3.9,3.3,10.5,2.9,13.1-1.3c1.5-2.5,2.2-5.7,2.7-8.7c0.6-4,2.6-5.5,6.3-4.4
	c8.3,2.3,16.6,4.6,24.7,7.4c3.2,1.1,2.8,3.9,1.4,6.6c-2.8,5.5-5.6,10.9-8,16.5c-2.4,5.6-1.3,7.2,4.9,7.4c1.7,0,3.4,0.3,5.1,0.3
	c4.2,0.1,7.2,1.9,8.1,6.2s-0.5,7.9-4.1,10.1c-3.5,2.3-8.1,2.1-11.3-0.5c-9.5-7.1-11.3-6.5-15.2,4.8c-1.7,4.6-3.6,9.1-5.7,13.4
	c-1.4,2.9-3.9,2.3-6.4,1.4c-6.6-2.4-13.3-5-20-7c-5.1-1.5-6.3-0.4-6.8,4.9c-0.4,4.3-1.1,8.5-5.8,10.2c-5.3,1.9-10,0.9-14-3.1
	c-2.4-2.3-2.3-6.9,0.1-9.7c0.9-1,1.9-2,2.8-3c4-4.3,3.4-6.8-2.4-8.8c-4.5-1.5-9.2-2.7-13.7-4.1c-1.5-0.4-3-0.9-4.4-1.5
	c-6.1-2.9-6.5-4.7-2.9-10c2-2.9,2.2-7,3.2-10.5c0.4-0.6,0.9-1.2,1.2-1.9c3.3-6.2,6.8-6.9,12.3-2.8c1.9,1.4,4.4,1.9,6.7,2.8
	c1.8,0,3.7,0.3,5.5,0c4.1-0.8,5.4-4.6,5.4-7.7c0-2.3-2.3-6.2-4.2-6.6c-5.1-1-10.5-0.5-15.8-0.6c-4.8-0.2-2.5-2.8-1.6-5
	C275.4,204.1,278.7,196.1,282.1,188.2z"/>
<path class="st0" d="M230.1,243.3c0,1.1-0.1,2.2-0.1,3.3c-0.1,0.4-0.1,1-0.4,1.3c-5.8,4.7-11.4,9.9-17.6,14c-4.6,3-10.3,3.1-12-3.9
	c-0.4-1.2-0.9-2.3-1.5-3.4c-1.5-3.6-4.6-5.9-8-4.8s-6,4.3-8.8,6.8c-0.3,0.3,0.5,2.6,1.4,3.4c2.9,2.5,6,4.8,9.2,6.9
	c2.6,1.8,3,3.8,1.4,6.3c-1.1,1.7-2.5,3.1-4.1,4.3c-6.4,4.5-12.9,8.8-19.3,13.2c-0.8-0.1-1.9,0.1-2.2-0.3c-5.6-6.6-11.5-13-16.7-19.9
	c-3.3-4.5-2.1-6.6,3.4-8.1c1.8-0.4,3.6-1,5.3-1.6c4.1-1.6,5.5-4.5,4.5-8.8c-1-4.2-4.5-7.1-8.5-5.7c-4.1,1.5-7.9,3.7-11.2,6.7
	c-4.2,3.8-5.3,4.3-9.4,0.1c-5.8-5.9-11.4-11.9-17.3-18.1c5.4-3.4,10.7-6.7,15.9-10.1c2.6-1.6,5.1-3.4,7.3-5.5c2-2,2.3-4.4-0.9-5.9
	c-1.9-1-3.7-2.3-5.7-3c-3.4-1.2-5.4-3.9-4.7-7c0.6-2.6,2.5-5.7,4.8-7c7.2-4.2,13-1.6,15.6,6.3c1.6,4.8,4.4,6.1,8.8,3.5
	c4.4-2.6,8.3-5.7,12.4-8.7c1.3-0.9,2.5-1.8,3.7-2.7c1.3-1.1,2.5-2.3,4.3-4l3.5,0.5c3.2,9.1,11.5,13.7,17.8,21.1
	c2.3-2.7,4.2-4.8,5.9-7c3-3.9,7-6.1,11.7-4.7c4.4,1.3,8.1,4.3,8.9,9c0.4,2.1-1,5.1-2.5,6.8c-1.5,1.7-4.2,2.6-6.5,3.4
	c-6.3,2.2-7.1,4.9-2.5,9.7C220.7,234.1,225.4,238.6,230.1,243.3z"/>
<path class="st1" d="M170.2,290.6c6.5-4.4,13-8.7,19.3-13.2c1.6-1.2,3-2.6,4.1-4.3c1.7-2.4,1.3-4.5-1.4-6.3
	c-3.2-2.1-6.3-4.4-9.2-6.9c-0.9-0.7-1.7-3.1-1.4-3.4c2.7-2.5,5.5-5.6,8.8-6.8c3.3-1.2,6.4,1.2,8,4.8c0.6,1.1,1.1,2.2,1.5,3.4
	c1.7,7,7.3,6.9,12,3.9c6.3-4.1,11.8-9.2,17.6-14c0.3-0.2,0.3-0.9,0.4-1.3c4.2-1.1,5.6,2.6,7.7,4.7c3.9,3.8,8.1,7.5,11.2,12
	c3.8,5.5,1.9,9.2-4.6,10.8c-6.5,1.7-9.5,4.8-7.4,8.6c1.8,2.9,4.5,5.2,7.6,6.6c3.3,1.5,6.6-0.5,8.9-3.2c0.6-0.7,1-1.6,1.5-2.3
	c3.8-4.9,8.4-5.1,12.7-0.6c4.1,4.3,8.3,8.5,12.6,12.7c3.2,3.1,3.1,5.2-0.6,7.7c-6,4.1-12,8.1-18,12.1c-4.8,3.2-9.8,0.8-11.8-5.5
	c-2-6.3-10.5-8.2-15.1-3.3c-4,4.3-2.8,9.4,2.4,12.2c2.4,1.2,6.1,3.8,5.9,5.3c-0.4,2.9-2.6,6.1-5.1,8c-5.6,4.4-11.8,8.2-18,12.3
	l-12.7-14.6c-0.7-0.9-1.4-1.7-2.1-2.4c-6.1-5.7-7.9-5.4-13.2,1c-1.8,2.1-3.9,3.9-6.1,5.5c-4.1,2.9-8.6,0.2-11.7-4.7s-1.9-8.2,3-10.4
	c2.2-1,4.6-1.7,6.9-2.5c4.5-1.6,5.6-3.8,2.9-7.6c-3.1-4.3-7-8.1-10.6-12C174.4,294.6,172.3,292.7,170.2,290.6z"/>
<path class="st1" d="M230.1,243.3c-4.7-4.7-9.4-9.3-14-14c-4.6-4.8-3.8-7.5,2.5-9.7c2.3-0.8,5-1.7,6.5-3.4c1.5-1.7,2.9-4.7,2.5-6.8
	c-0.8-4.7-4.6-7.8-8.9-9c-4.7-1.4-8.7,0.9-11.7,4.7c-1.8,2.2-3.7,4.4-5.9,7c-6.4-7.4-14.6-12-17.8-21.1c4.2-3.7,8.4-7.4,12.7-11.1
	c1.9-1.6,3.8-3.1,5.9-4.4c4.5-2.9,9.1-1.4,10.4,3.8c1.2,4.7,3.8,7.1,8.5,7.9c5.3,0.8,8-2.6,10.6-6c1.8-2.3-1.4-7.3-5.3-9.4
	c-2.4-1.3-4.5-3.2-6.8-4.8c2-2.5,3.6-5.6,6-7.5c5.2-4,11-7.4,16.3-11.2c2.6-1.9,3.9-1.1,5.7,1.1c4.3,5.5,9,10.8,13.8,15.8
	c4.1,4.1,5.9,3.5,9.4-1.1c3.4-4.4,7.9-6.7,13.7-5.7c4.1,0.7,6.9,2.6,7.2,7.1c0.4,4.9-1.2,7.2-6.1,8.9c-1.2,0.3-2.4,0.8-3.5,1.3
	c-1.9,1-5.4,2.4-5.3,3.2c0.4,2.5,2,4.9,3.4,7.2c0.7,0.8,1.4,1.5,2.3,2.1c-3.4,8-6.7,15.9-10.1,23.9c-0.9,2.1-3.2,4.7,1.6,5
	c-4.5,3.4-4.2,5.4,1,7.8c3.4,1.6,7.3,2.6,8.2,7c-2.2-0.9-4.8-1.4-6.7-2.8c-5.5-4.1-9-3.4-12.3,2.8c-0.4,0.7-0.8,1.3-1.2,1.9
	c-2.7-5.2-4.2-5.8-8.8-2.7c-4.3,2.9-8.3,6.1-12.3,9.4C238,243.2,234.5,245,230.1,243.3z"/>
<path class="st2" d="M406.2,253.2c-2.4-14.2-4.6-28.8-7.3-43.2c-0.9-5-3-9.9-4.9-14.6c-8.6-21.9-20.6-40.9-38.9-55.8
	c-22.1-18-47.5-26.2-74.9-29.5c-25.4-3.1-51.1-2.7-76.4,1.2c-16.5,2.5-32.5,7.9-47.2,15.9c-13.5,7.4-25.5,17.6-35.2,29.8
	c-8.5,10.5-15.5,21.7-19.8,34.5c-3.3,9.5-5.3,19.4-8.6,28.8c-3.8,10.9-3.4,22.1-4.7,33.6c13,0,25.6-1,37.9,0.3
	c13.6,1.4,24,8.6,27.5,23.4c1,3.9,1.6,7.9,1.8,11.9c0.2,20.6-0.1,41.2,0.2,61.9c0.1,5.8-1.2,11.6-3.8,16.8
	c-5.1,10.6-14.1,16.8-25.2,17.6c-13.6,0.9-27.2,0.7-40.7-0.7c-8.3-0.9-14.9-6.3-20-13.9c-3.9-5.8-4.8-11.8-4.8-18.3
	c0-21.7-0.3-43.5,0.1-65.2c0.3-18,0.7-36.1,2.4-54c1.3-12,3.8-23.8,7.4-35.2c3.3-11.1,7.7-21.8,13.2-31.9
	c11-19.7,25.1-36.7,43.6-49.8c24.4-17.2,51.5-26.2,80.5-29.6c30.5-3.5,60.9-3.4,91.3,2.1c16,2.9,31.5,8,46,15.3
	c17.6,8.7,33.3,20.9,46.2,36c6.2,7.2,11.4,15.6,16.2,23.9c7.5,12.9,12.3,26.9,16.4,41.3c5.7,20,6.7,40.3,7,60.8
	c0.3,18.8,0.3,37.7,0.4,56.5c0,9.6-0.5,19.2,0.1,28.8c1.3,19.5-11.7,32.4-29,34c-13.1,1.2-26.3,0.9-39.3-0.8
	c-13-1.6-25.7-14.6-25.3-30.3c0.5-22.2,1-44.5-0.1-66.6c-1-19.1,13.3-32.2,29-34.1c6.3-0.8,12.7-0.6,19-0.8
	C392.4,253.1,398.8,253.2,406.2,253.2z"/>
<path class="st3" d="M52.8,296.4v65.5c-3.9-2.1-7.3-3.9-10.7-5.8c-2.4-1.3-5-2.5-7.1-4.3c-1.5-1.3-3.1-3.6-3.1-5.5
	c-0.3-11.8-0.2-23.6-0.1-35.4c0-1.4,0.4-3.6,1.3-4.1C39.3,303.2,45.7,300,52.8,296.4z"/>
<path class="st3" d="M440.5,361.8v-65.2l20.8,11v41.8L440.5,361.8z"/>
</svg>
